<svg xmlns="http://www.w3.org/2000/svg" width="16" height="16" viewBox="0 0 16 16" fill="none">
<path fill-rule="evenodd" clip-rule="evenodd" d="M12.9894 12.0611C12.5593 12.1409 12.1168 12.1825 11.6654 12.1825C7.56666 12.1825 4.24395 8.76395 4.24395 4.54698C4.24395 4.08247 4.2844 3.627 4.362 3.18433C2.79187 4.33917 1.77012 6.23004 1.77012 8.36448C1.77012 11.8786 4.53904 14.7274 7.95469 14.7274C10.0292 14.7274 11.8669 13.6763 12.9894 12.0611ZM13.9244 10.4721C14.441 10.2634 15.0448 10.6992 14.8365 11.2284C13.7354 14.0264 11.069 16 7.95469 16C3.85592 16 0.533203 12.5815 0.533203 8.36448C0.533203 5.16014 2.45174 2.41681 5.17147 1.28406C5.68592 1.0698 6.10938 1.69097 5.90654 2.22248C5.63175 2.94254 5.48086 3.72663 5.48086 4.54698C5.48086 8.06112 8.24979 10.9099 11.6654 10.9099C12.4626 10.9099 13.2246 10.7547 13.9244 10.4721Z" fill="#E6E6E6"/>
<path d="M12.6157 3.73347C12.7007 3.40879 12.7432 3.24645 12.8097 3.20699C12.867 3.17296 12.9377 3.17296 12.995 3.20699C13.0615 3.24645 13.104 3.40879 13.189 3.73347L13.4102 4.57873C13.4642 4.78495 13.4912 4.88806 13.5444 4.97235C13.5915 5.04694 13.6534 5.11053 13.7258 5.15902C13.8078 5.21382 13.908 5.24158 14.1084 5.2971L14.93 5.52468C15.2456 5.6121 15.4034 5.65581 15.4417 5.72424C15.4748 5.78326 15.4748 5.85595 15.4417 5.91497C15.4034 5.98339 15.2456 6.0271 14.93 6.11452L14.1084 6.3421C13.908 6.39763 13.8078 6.42539 13.7258 6.48019C13.6534 6.52868 13.5915 6.59227 13.5444 6.66685C13.4912 6.75115 13.4642 6.85426 13.4102 7.06047L13.189 7.90573C13.104 8.23041 13.0615 8.39275 12.995 8.43221C12.9377 8.46625 12.867 8.46625 12.8097 8.43221C12.7432 8.39275 12.7007 8.23041 12.6157 7.90573L12.3945 7.06047C12.3405 6.85426 12.3135 6.75115 12.2603 6.66685C12.2131 6.59227 12.1513 6.52868 12.0788 6.48019C11.9969 6.42539 11.8967 6.39763 11.6963 6.3421L10.8747 6.11452C10.5591 6.0271 10.4013 5.98339 10.363 5.91497C10.3299 5.85595 10.3299 5.78326 10.363 5.72424C10.4013 5.65581 10.5591 5.6121 10.8747 5.52468L11.6963 5.2971C11.8967 5.24158 11.9969 5.21382 12.0788 5.15902C12.1513 5.11053 12.2131 5.04694 12.2603 4.97235C12.3135 4.88806 12.3405 4.78495 12.3945 4.57873L12.6157 3.73347Z" fill="#E6E6E6"/>
<path d="M9.21418 0.55201C9.29915 0.227329 9.34164 0.0649882 9.40814 0.0255279C9.46551 -0.00850929 9.53616 -0.0085093 9.59352 0.0255279C9.66003 0.0649883 9.70251 0.227329 9.78748 0.55201L9.8119 0.645293C9.86586 0.851511 9.89285 0.95462 9.94611 1.03892C9.99324 1.1135 10.055 1.17709 10.1275 1.22558C10.2095 1.28038 10.3097 1.30814 10.5101 1.36366L10.6008 1.38878C10.9164 1.4762 11.0742 1.51991 11.1125 1.58833C11.1456 1.64735 11.1456 1.72004 11.1125 1.77906C11.0742 1.84749 10.9164 1.8912 10.6008 1.97862L10.5101 2.00373C10.3097 2.05926 10.2095 2.08702 10.1275 2.14182C10.055 2.19031 9.99324 2.2539 9.94611 2.32848C9.89285 2.41278 9.86586 2.51589 9.8119 2.7221L9.78748 2.81539C9.70251 3.14007 9.66003 3.30241 9.59352 3.34187C9.53616 3.37591 9.46551 3.37591 9.40814 3.34187C9.34164 3.30241 9.29915 3.14007 9.21418 2.81539L9.18977 2.7221C9.1358 2.51589 9.10882 2.41278 9.05555 2.32848C9.00843 2.2539 8.94662 2.19031 8.87412 2.14182C8.79219 2.08702 8.69197 2.05926 8.49153 2.00373L8.40087 1.97862C8.08529 1.8912 7.9275 1.84749 7.88914 1.77906C7.85606 1.72004 7.85606 1.64735 7.88914 1.58833C7.9275 1.51991 8.08529 1.4762 8.40087 1.38878L8.49153 1.36366C8.69197 1.30814 8.79219 1.28038 8.87412 1.22558C8.94662 1.17709 9.00843 1.1135 9.05555 1.03892C9.10882 0.95462 9.1358 0.851511 9.18977 0.645293L9.21418 0.55201Z" fill="#E6E6E6"/>
</svg>