<svg xmlns="http://www.w3.org/2000/svg" width="16" height="16" viewBox="0 0 16 16" fill="none">
<path fill-rule="evenodd" clip-rule="evenodd" d="M7.99941 10.2856C9.26184 10.2856 10.2852 9.26223 10.2852 7.9998C10.2852 6.73738 9.26184 5.71398 7.99941 5.71398C6.73699 5.71398 5.71359 6.73738 5.71359 7.9998C5.71359 9.26223 6.73699 10.2856 7.99941 10.2856ZM7.99941 11.4285C9.89305 11.4285 11.4282 9.89344 11.4282 7.9998C11.4282 6.10616 9.89305 4.57106 7.99941 4.57106C6.10577 4.57106 4.57068 6.10616 4.57068 7.9998C4.57068 9.89344 6.10577 11.4285 7.99941 11.4285Z" fill="white"/>
<path d="M7.42796 0.570869C7.42796 0.255262 7.68381 -0.000587463 7.99941 -0.000587463C8.31502 -0.000587463 8.57087 0.255262 8.57087 0.570869V2.85669C8.57087 3.1723 8.31502 3.42815 7.99941 3.42815C7.68381 3.42815 7.42796 3.1723 7.42796 2.85669V0.570869Z" fill="white"/>
<path d="M2.34237 3.15084C2.11921 2.92767 2.11921 2.56584 2.34237 2.34268C2.56554 2.11951 2.92737 2.11951 3.15053 2.34268L4.76686 3.959C4.99003 4.18217 4.99003 4.54399 4.76686 4.76716C4.54369 4.99033 4.18186 4.99033 3.9587 4.76716L2.34237 3.15084Z" fill="white"/>
<path d="M12.8484 2.34276C13.0715 2.11959 13.4334 2.11959 13.6565 2.34276C13.8797 2.56593 13.8797 2.92776 13.6565 3.15092L12.0402 4.76725C11.8171 4.99041 11.4552 4.99041 11.2321 4.76725C11.0089 4.54408 11.0089 4.18225 11.2321 3.95909L12.8484 2.34276Z" fill="white"/>
<path d="M15.4283 7.42835C15.744 7.42835 15.9998 7.6842 15.9998 7.9998C15.9998 8.31541 15.744 8.57126 15.4283 8.57126H13.1425C12.8269 8.57126 12.5711 8.31541 12.5711 7.9998C12.5711 7.6842 12.8269 7.42835 13.1425 7.42835H15.4283Z" fill="white"/>
<path d="M7.42796 13.1429C7.42796 12.8273 7.68381 12.5715 7.99941 12.5715C8.31502 12.5715 8.57087 12.8273 8.57087 13.1429V15.4287C8.57087 15.7443 8.31502 16.0002 7.99941 16.0002C7.68381 16.0002 7.42796 15.7443 7.42796 15.4287V13.1429Z" fill="white"/>
<path d="M11.2323 12.0408C11.0091 11.8176 11.0091 11.4558 11.2323 11.2326C11.4555 11.0095 11.8173 11.0095 12.0405 11.2326L13.6568 12.8489C13.88 13.0721 13.88 13.4339 13.6568 13.6571C13.4336 13.8803 13.0718 13.8803 12.8486 13.6571L11.2323 12.0408Z" fill="white"/>
<path d="M3.95844 11.2321C4.1816 11.009 4.54343 11.009 4.7666 11.2321C4.98977 11.4553 4.98977 11.8171 4.7666 12.0403L3.15028 13.6566C2.92711 13.8798 2.56528 13.8798 2.34211 13.6566C2.11895 13.4335 2.11895 13.0716 2.34211 12.8485L3.95844 11.2321Z" fill="white"/>
<path d="M2.85631 7.42779C3.17191 7.42779 3.42776 7.68364 3.42776 7.99925C3.42776 8.31485 3.17191 8.5707 2.85631 8.5707H0.57048C0.254873 8.5707 -0.000976569 8.31485 -0.000976562 7.99925C-0.000976556 7.68364 0.254873 7.42779 0.57048 7.42779H2.85631Z" fill="white"/>
</svg>